<?xml version="1.0" encoding="utf-8"?>
<!-- Generator: Adobe Illustrator 16.0.4, SVG Export Plug-In . SVG Version: 6.00 Build 0)  -->
<!DOCTYPE svg PUBLIC "-//W3C//DTD SVG 1.1//EN" "http://www.w3.org/Graphics/SVG/1.1/DTD/svg11.dtd">
<svg version="1.1" id="Layer_1" xmlns="http://www.w3.org/2000/svg" xmlns:xlink="http://www.w3.org/1999/xlink" x="0px" y="0px"
	 width="279.759px" height="51.209px" viewBox="0 0 279.759 51.209" enable-background="new 0 0 279.759 51.209"
	 xml:space="preserve">
<g>
	<path d="M71.94,0v46.007H61.519v-3.603h5.898V3.603h-5.898V0H71.94z"/>
</g>
<path fill="#808080" d="M101.624,29.111v13.087h-3.788v-3.4c-0.806,1.366-1.819,2.372-3.042,3.021
	c-1.223,0.649-2.707,0.973-4.454,0.973c-2.335,0-4.198-0.659-5.591-1.976c-1.394-1.317-2.09-3.083-2.09-5.294
	c0-2.554,0.856-4.491,2.57-5.816c1.715-1.325,4.229-1.986,7.548-1.986h5.059v-0.594c-0.015-1.829-0.478-3.158-1.394-3.983
	c-0.915-0.825-2.375-1.239-4.383-1.239c-1.283,0-2.58,0.184-3.891,0.553s-2.587,0.907-3.83,1.618v-3.769
	c1.393-0.533,2.729-0.932,4.004-1.198c1.276-0.266,2.515-0.399,3.717-0.399c1.899,0,3.519,0.281,4.864,0.84s2.434,1.399,3.267,2.519
	c0.519,0.682,0.887,1.526,1.106,2.529C101.515,25.598,101.624,27.104,101.624,29.111z M94.312,30.667h-1.249
	c-2.197,0-3.854,0.385-4.967,1.157c-1.111,0.772-1.669,1.921-1.669,3.451c0,1.378,0.416,2.451,1.25,3.215
	c0.833,0.764,1.986,1.147,3.461,1.147c2.074,0,3.707-0.721,4.895-2.161c1.188-1.44,1.788-3.431,1.803-5.97v-0.84H94.312z"/>
<path fill="#808080" d="M117.762,12.747v6.513h8.561v2.929h-8.561v12.452c0,1.693,0.321,2.873,0.963,3.543
	c0.641,0.669,1.761,1.003,3.358,1.003h4.239v3.011h-4.607c-2.826,0-4.819-0.567-5.98-1.7c-1.161-1.133-1.741-3.086-1.741-5.857
	V22.188h-6.123V19.26h6.123v-6.513H117.762z"/>
<path fill="#808080" d="M152.128,29.111v13.087h-3.789v-3.4c-0.805,1.366-1.818,2.372-3.041,3.021
	c-1.223,0.649-2.708,0.973-4.455,0.973c-2.334,0-4.198-0.659-5.591-1.976s-2.089-3.083-2.089-5.294c0-2.554,0.856-4.491,2.57-5.816
	s4.229-1.986,7.547-1.986h5.059v-0.594c-0.015-1.829-0.477-3.158-1.393-3.983c-0.915-0.825-2.376-1.239-4.383-1.239
	c-1.284,0-2.58,0.184-3.892,0.553c-1.311,0.369-2.586,0.907-3.829,1.618v-3.769c1.393-0.533,2.728-0.932,4.004-1.198
	c1.275-0.266,2.515-0.399,3.717-0.399c1.898,0,3.519,0.281,4.864,0.84s2.433,1.399,3.267,2.519c0.519,0.682,0.887,1.526,1.105,2.529
	C152.02,25.598,152.128,27.104,152.128,29.111z M144.817,30.667h-1.249c-2.198,0-3.854,0.385-4.967,1.157
	c-1.112,0.772-1.669,1.921-1.669,3.451c0,1.378,0.416,2.451,1.249,3.215c0.834,0.764,1.986,1.147,3.461,1.147
	c2.075,0,3.707-0.721,4.896-2.161c1.188-1.44,1.787-3.431,1.802-5.97v-0.84H144.817z"/>
<path fill="#808080" d="M170.417,33.903c0,1.693,0.312,2.969,0.932,3.83s1.54,1.291,2.755,1.291h4.403v3.174h-4.772
	c-2.253,0-3.997-0.721-5.232-2.161c-1.235-1.44-1.854-3.486-1.854-6.134V13.157h-6.042v-2.949h9.811V33.903z"/>
<path fill="#808080" d="M193.56,18.707c3.181,0,5.616,1.03,7.301,3.093c1.686,2.062,2.53,5.044,2.53,8.95
	c0,3.918-0.84,6.906-2.52,8.96s-4.116,3.082-7.312,3.082c-3.181,0-5.611-1.028-7.291-3.082s-2.519-5.042-2.519-8.96
	c0-3.905,0.839-6.887,2.519-8.95S190.379,18.707,193.56,18.707z M193.56,21.902c-1.911,0-3.358,0.743-4.342,2.232
	c-0.983,1.489-1.475,3.693-1.475,6.615c0,2.908,0.491,5.11,1.475,6.605s2.431,2.243,4.342,2.243c1.925,0,3.379-0.748,4.362-2.243
	s1.475-3.697,1.475-6.605c0-2.922-0.491-5.126-1.475-6.615C196.939,22.645,195.485,21.902,193.56,21.902z"/>
<path fill="#808080" d="M227.537,40.723c0,3.44-0.812,6.048-2.437,7.823c-1.624,1.776-4.015,2.663-7.168,2.663
	c-1.039,0-2.124-0.096-3.257-0.287s-2.268-0.471-3.399-0.84v-3.728c1.337,0.629,2.554,1.092,3.646,1.393
	c1.091,0.301,2.095,0.45,3.011,0.45c2.033,0,3.516-0.553,4.443-1.659s1.394-2.861,1.394-5.264v-0.164v-2.56
	c-0.601,1.284-1.42,2.238-2.458,2.867s-2.3,0.942-3.789,0.942c-2.677,0-4.812-1.071-6.41-3.215
	c-1.598-2.144-2.396-5.011-2.396-8.602c0-3.604,0.799-6.478,2.396-8.623c1.598-2.144,3.733-3.215,6.41-3.215
	c1.475,0,2.724,0.293,3.748,0.881s1.857,1.495,2.499,2.724v-2.969h3.768V40.723z M223.769,30.544c0-2.826-0.461-4.973-1.383-6.441
	c-0.922-1.469-2.263-2.202-4.024-2.202c-1.844,0-3.25,0.733-4.219,2.202c-0.969,1.468-1.454,3.615-1.454,6.441
	s0.487,4.981,1.464,6.461c0.978,1.481,2.393,2.222,4.25,2.222c1.734,0,3.062-0.744,3.983-2.232S223.769,33.356,223.769,30.544z"/>
<path fill="#808080" d="M235.442,33.514V19.301h3.769v14.213c0,2.062,0.365,3.578,1.096,4.546c0.731,0.969,1.86,1.454,3.39,1.454
	c1.775,0,3.134-0.625,4.076-1.874c0.941-1.249,1.413-3.041,1.413-5.376V19.301h3.788v22.897h-3.788v-3.441
	c-0.67,1.325-1.581,2.329-2.734,3.011s-2.503,1.024-4.045,1.024c-2.35,0-4.096-0.768-5.243-2.304
	C236.016,38.952,235.442,36.627,235.442,33.514z"/>
<path fill="#808080" d="M279.639,28.845v1.843h-16.323v0.123c-0.108,3.127,0.487,5.372,1.792,6.738
	c1.305,1.366,3.144,2.048,5.52,2.048c1.202,0,2.458-0.19,3.769-0.573c1.311-0.383,2.71-0.963,4.198-1.741v3.748
	c-1.434,0.588-2.815,1.028-4.147,1.321c-1.331,0.293-2.617,0.44-3.86,0.44c-3.563,0-6.349-1.069-8.355-3.205
	c-2.008-2.136-3.011-5.083-3.011-8.837c0-3.66,0.982-6.58,2.949-8.766c1.966-2.185,4.587-3.277,7.864-3.277
	c2.923,0,5.227,0.989,6.912,2.97S279.531,26.045,279.639,28.845z M275.871,27.739c-0.164-1.583-0.741-2.954-1.73-4.106
	c-0.989-1.153-2.413-1.73-4.271-1.73c-1.816,0-3.312,0.6-4.485,1.802c-1.173,1.202-1.816,2.554-1.925,4.055L275.871,27.739z"/>
<g>
	<path d="M-0.121,0H10.3v3.603H4.402v38.802H10.3v3.603H-0.121V0z"/>
</g>
<g>
	<path fill="#4F81D3" d="M35.581,40.797c-1.212,0.705-2.461,1.233-3.747,1.585c-1.286,0.353-2.602,0.528-3.945,0.528
		c-4.26,0-7.59-1.278-9.99-3.833c-2.4-2.556-3.601-6.095-3.601-10.617s1.2-8.061,3.601-10.617c2.4-2.556,5.73-3.833,9.99-3.833
		c1.327,0,2.622,0.172,3.884,0.516c1.261,0.344,2.531,0.877,3.809,1.598v4.743c-1.195-1.065-2.396-1.835-3.6-2.31
		c-1.205-0.475-2.568-0.713-4.093-0.713c-2.834,0-5.014,0.917-6.537,2.753c-1.523,1.835-2.285,4.457-2.285,7.864
		c0,3.392,0.766,6.009,2.298,7.852c1.531,1.843,3.707,2.765,6.524,2.765c1.573,0,2.982-0.242,4.228-0.725s2.4-1.233,3.465-2.249
		V40.797z"/>
</g>
<g>
	<path fill="#4F81D3" d="M47.361,32.244c0,2.032,0.373,3.563,1.118,4.596c0.746,1.032,1.848,1.548,3.306,1.548h5.284v3.81h-5.727
		c-2.703,0-4.796-0.864-6.279-2.593c-1.482-1.729-2.224-4.182-2.224-7.361V7.348h-7.25V3.81h11.771V32.244z"/>
</g>
</svg>
